<mxfile host="app.diagrams.net" agent="Mozilla/5.0 (Windows NT 10.0; Win64; x64) AppleWebKit/537.36 (KHTML, like Gecko) Chrome/133.0.0.0 Safari/537.36" version="26.0.14">
  <diagram name="Page-1" id="4Hlu0s-bDeJeA6eEQ5W3">
    <mxGraphModel dx="1221" dy="759" grid="1" gridSize="10" guides="1" tooltips="1" connect="1" arrows="1" fold="1" page="1" pageScale="1" pageWidth="850" pageHeight="1100" math="0" shadow="0">
      <root>
        <mxCell id="0" />
        <mxCell id="1" parent="0" />
        <mxCell id="0P-slkQHDkaZJqlSzweV-1" value="perms_manip" style="rounded=0;whiteSpace=wrap;html=1;" vertex="1" parent="1">
          <mxGeometry x="360" y="360" width="120" height="60" as="geometry" />
        </mxCell>
        <mxCell id="0P-slkQHDkaZJqlSzweV-2" value="encrypter" style="rounded=0;whiteSpace=wrap;html=1;" vertex="1" parent="1">
          <mxGeometry x="500" y="360" width="120" height="60" as="geometry" />
        </mxCell>
        <mxCell id="0P-slkQHDkaZJqlSzweV-15" style="edgeStyle=orthogonalEdgeStyle;rounded=0;orthogonalLoop=1;jettySize=auto;html=1;exitX=0.5;exitY=0;exitDx=0;exitDy=0;entryX=0;entryY=0.5;entryDx=0;entryDy=0;" edge="1" parent="1" source="0P-slkQHDkaZJqlSzweV-3" target="0P-slkQHDkaZJqlSzweV-4">
          <mxGeometry relative="1" as="geometry" />
        </mxCell>
        <mxCell id="0P-slkQHDkaZJqlSzweV-3" value="UI" style="rounded=0;whiteSpace=wrap;html=1;" vertex="1" parent="1">
          <mxGeometry x="230" y="620" width="120" height="60" as="geometry" />
        </mxCell>
        <mxCell id="0P-slkQHDkaZJqlSzweV-8" style="edgeStyle=orthogonalEdgeStyle;rounded=0;orthogonalLoop=1;jettySize=auto;html=1;exitX=0.5;exitY=0;exitDx=0;exitDy=0;entryX=0.5;entryY=1;entryDx=0;entryDy=0;" edge="1" parent="1" source="0P-slkQHDkaZJqlSzweV-4" target="0P-slkQHDkaZJqlSzweV-1">
          <mxGeometry relative="1" as="geometry">
            <Array as="points">
              <mxPoint x="490" y="580" />
              <mxPoint x="490" y="500" />
              <mxPoint x="420" y="500" />
            </Array>
          </mxGeometry>
        </mxCell>
        <mxCell id="0P-slkQHDkaZJqlSzweV-4" value="perms&lt;span style=&quot;background-color: transparent; color: light-dark(rgb(0, 0, 0), rgb(255, 255, 255));&quot;&gt;_serializer&lt;/span&gt;" style="rounded=0;whiteSpace=wrap;html=1;" vertex="1" parent="1">
          <mxGeometry x="430" y="560" width="120" height="60" as="geometry" />
        </mxCell>
        <mxCell id="0P-slkQHDkaZJqlSzweV-9" value="" style="endArrow=classic;html=1;rounded=0;entryX=0.5;entryY=1;entryDx=0;entryDy=0;" edge="1" parent="1" target="0P-slkQHDkaZJqlSzweV-2">
          <mxGeometry width="50" height="50" relative="1" as="geometry">
            <mxPoint x="560" y="500" as="sourcePoint" />
            <mxPoint x="450" y="370" as="targetPoint" />
            <Array as="points">
              <mxPoint x="560" y="460" />
            </Array>
          </mxGeometry>
        </mxCell>
        <mxCell id="0P-slkQHDkaZJqlSzweV-10" value="" style="endArrow=none;html=1;rounded=0;" edge="1" parent="1">
          <mxGeometry width="50" height="50" relative="1" as="geometry">
            <mxPoint x="480" y="500" as="sourcePoint" />
            <mxPoint x="560" y="500" as="targetPoint" />
          </mxGeometry>
        </mxCell>
        <mxCell id="0P-slkQHDkaZJqlSzweV-11" value="Invokes methods from" style="text;html=1;align=center;verticalAlign=middle;resizable=0;points=[];autosize=1;strokeColor=none;fillColor=none;" vertex="1" parent="1">
          <mxGeometry x="500" y="510" width="140" height="30" as="geometry" />
        </mxCell>
        <mxCell id="0P-slkQHDkaZJqlSzweV-13" style="edgeStyle=orthogonalEdgeStyle;rounded=0;orthogonalLoop=1;jettySize=auto;html=1;exitX=0.5;exitY=0;exitDx=0;exitDy=0;entryX=0.5;entryY=1;entryDx=0;entryDy=0;" edge="1" parent="1" source="0P-slkQHDkaZJqlSzweV-12" target="0P-slkQHDkaZJqlSzweV-4">
          <mxGeometry relative="1" as="geometry" />
        </mxCell>
        <mxCell id="0P-slkQHDkaZJqlSzweV-12" value="main (CLI)" style="rounded=0;whiteSpace=wrap;html=1;" vertex="1" parent="1">
          <mxGeometry x="430" y="770" width="120" height="60" as="geometry" />
        </mxCell>
        <mxCell id="0P-slkQHDkaZJqlSzweV-14" value="Calls" style="text;html=1;align=center;verticalAlign=middle;resizable=0;points=[];autosize=1;strokeColor=none;fillColor=none;" vertex="1" parent="1">
          <mxGeometry x="490" y="708" width="50" height="30" as="geometry" />
        </mxCell>
        <mxCell id="0P-slkQHDkaZJqlSzweV-17" style="edgeStyle=orthogonalEdgeStyle;rounded=0;orthogonalLoop=1;jettySize=auto;html=1;exitX=0.5;exitY=0;exitDx=0;exitDy=0;entryX=0.5;entryY=1;entryDx=0;entryDy=0;" edge="1" parent="1" source="0P-slkQHDkaZJqlSzweV-16" target="0P-slkQHDkaZJqlSzweV-3">
          <mxGeometry relative="1" as="geometry" />
        </mxCell>
        <mxCell id="0P-slkQHDkaZJqlSzweV-16" value="main (GUI)" style="rounded=0;whiteSpace=wrap;html=1;" vertex="1" parent="1">
          <mxGeometry x="230" y="770" width="120" height="60" as="geometry" />
        </mxCell>
        <mxCell id="0P-slkQHDkaZJqlSzweV-18" value="Calls" style="text;html=1;align=center;verticalAlign=middle;resizable=0;points=[];autosize=1;strokeColor=none;fillColor=none;" vertex="1" parent="1">
          <mxGeometry x="285" y="708" width="50" height="30" as="geometry" />
        </mxCell>
        <mxCell id="0P-slkQHDkaZJqlSzweV-19" value="Calls" style="text;html=1;align=center;verticalAlign=middle;resizable=0;points=[];autosize=1;strokeColor=none;fillColor=none;" vertex="1" parent="1">
          <mxGeometry x="335" y="560" width="50" height="30" as="geometry" />
        </mxCell>
        <mxCell id="0P-slkQHDkaZJqlSzweV-20" value="Contains common information&lt;br&gt;(version, build date etc)&lt;div&gt;and common process logic&lt;/div&gt;" style="text;html=1;align=center;verticalAlign=middle;resizable=0;points=[];autosize=1;strokeColor=none;fillColor=none;" vertex="1" parent="1">
          <mxGeometry x="550" y="560" width="180" height="60" as="geometry" />
        </mxCell>
        <mxCell id="0P-slkQHDkaZJqlSzweV-21" value="Encrypts and decrypts data, &lt;br&gt;checks checksums" style="text;html=1;align=center;verticalAlign=middle;resizable=0;points=[];autosize=1;strokeColor=none;fillColor=none;" vertex="1" parent="1">
          <mxGeometry x="620" y="370" width="170" height="40" as="geometry" />
        </mxCell>
        <mxCell id="0P-slkQHDkaZJqlSzweV-22" value="Gets and sets permissions&amp;nbsp;&lt;div&gt;for the specified file&lt;/div&gt;" style="text;html=1;align=center;verticalAlign=middle;resizable=0;points=[];autosize=1;strokeColor=none;fillColor=none;" vertex="1" parent="1">
          <mxGeometry x="190" y="370" width="170" height="40" as="geometry" />
        </mxCell>
      </root>
    </mxGraphModel>
  </diagram>
</mxfile>
